<svg width="18" height="18" viewBox="0 0 18 18" fill="none" xmlns="http://www.w3.org/2000/svg">
<path d="M9.00045 4.38273C8.08805 4.38273 7.19614 4.65344 6.4375 5.16063C5.67887 5.66781 5.08759 6.3887 4.73843 7.23212C4.38927 8.07554 4.29791 9.00362 4.47591 9.89899C4.65391 10.7944 5.09328 11.6168 5.73844 12.2623C6.3836 12.9079 7.20559 13.3475 8.10046 13.5256C8.99533 13.7037 9.92288 13.6123 10.7658 13.2629C11.6088 12.9136 12.3293 12.3219 12.8362 11.5629C13.3431 10.8038 13.6136 9.91141 13.6136 8.9985C13.6145 8.39209 13.4958 7.79146 13.2643 7.23103C13.0328 6.6706 12.6931 6.1614 12.2645 5.7326C11.8359 5.3038 11.327 4.96384 10.7669 4.73221C10.2068 4.50057 9.60651 4.38181 9.00045 4.38273ZM9.00045 11.999C8.40734 11.999 7.82755 11.823 7.33439 11.4933C6.84124 11.1636 6.45688 10.695 6.2299 10.1467C6.00293 9.59847 5.94354 8.99517 6.05925 8.41313C6.17496 7.83109 6.46057 7.29645 6.87996 6.87682C7.29936 6.4572 7.83369 6.17143 8.41541 6.05565C8.99712 5.93988 9.60008 5.9993 10.148 6.2264C10.696 6.4535 11.1644 6.83808 11.4939 7.33151C11.8234 7.82494 11.9993 8.40506 11.9993 8.9985C11.9977 9.79379 11.6812 10.5561 11.1192 11.1184C10.5571 11.6808 9.79529 11.9974 9.00045 11.999ZM14.8781 4.1977C14.8781 4.41055 14.815 4.61862 14.6969 4.79559C14.5787 4.97257 14.4107 5.1105 14.2141 5.19196C14.0176 5.27341 13.8014 5.29473 13.5927 5.2532C13.3841 5.21168 13.1924 5.10918 13.042 4.95867C12.8916 4.80817 12.7891 4.61641 12.7476 4.40765C12.7061 4.19889 12.7274 3.98251 12.8088 3.78586C12.8903 3.58922 13.0281 3.42114 13.205 3.30289C13.3819 3.18464 13.5898 3.12152 13.8025 3.12152C13.9435 3.12126 14.0832 3.14878 14.2135 3.20252C14.3439 3.25626 14.4624 3.33516 14.5623 3.43473C14.6621 3.53429 14.7414 3.65255 14.7956 3.78278C14.8498 3.913 14.8779 4.05263 14.8781 4.1937V4.1977ZM17.9339 5.28988C17.9637 3.89011 17.4416 2.53487 16.4805 1.51725C15.4614 0.55887 14.1083 0.0369925 12.71 0.0630105C11.2246 -0.0210035 6.77233 -0.0210035 5.28592 0.0630105C3.888 0.0350595 2.53466 0.555591 1.51541 1.51325C0.557008 2.53127 0.0355751 3.8846 0.0629832 5.28288C-0.024982 6.77313 -0.024982 11.2239 0.0629832 12.7101C0.0332231 14.1099 0.555336 15.4651 1.51641 16.4827C2.53589 17.4405 3.88872 17.9623 5.28692 17.937C6.77233 18.021 11.2246 18.021 12.711 17.937C14.11 17.9668 15.4644 17.4444 16.4815 16.4827C17.4393 15.4631 17.9609 14.1092 17.9349 12.7101C18.0179 11.2239 18.0179 6.77313 17.9339 5.28688V5.28988ZM16.0147 14.3084C15.862 14.6956 15.6313 15.0474 15.3371 15.3418C15.0429 15.6361 14.6914 15.8669 14.3043 16.0197C13.1198 16.4897 10.3059 16.3807 9.00045 16.3807C7.69496 16.3807 4.87708 16.4807 3.69654 16.0197C3.3095 15.8669 2.95797 15.6361 2.66376 15.3418C2.36954 15.0474 2.13893 14.6956 1.98622 14.3084C1.51641 13.1232 1.62536 10.3077 1.62536 9.0015C1.62536 7.69528 1.5254 4.87581 1.98622 3.69461C2.13893 3.30735 2.36954 2.95562 2.66376 2.66125C2.95797 2.36687 3.3095 2.13612 3.69654 1.98333C4.88108 1.51325 7.69496 1.62227 9.00045 1.62227C10.3059 1.62227 13.1238 1.52225 14.3043 1.98333C14.6914 2.13612 15.0429 2.36687 15.3371 2.66125C15.6313 2.95562 15.862 3.30735 16.0147 3.69461C16.4845 4.87981 16.3755 7.69528 16.3755 9.0015C16.3755 10.3077 16.4845 13.1242 16.0147 14.3054V14.3084Z" fill="#383A4A"/>
</svg>
