<svg 
width="18" 
height="13" 
viewBox="0 0 18 13" 
fill="none" 
xmlns="http://www.w3.org/2000/svg">
<path 
d="M17.624 1.9839C17.5221 1.60129 17.3215 1.25214 17.0423 0.971361C16.7631 0.690583 16.415 0.488007 16.033 0.383898C13.6996 0.102738 11.3502 -0.0242012 9.00001 0.00390058C6.65023 -0.0244889 4.30113 0.102117 1.96801 0.382898C1.58598 0.487007 1.23797 0.689576 0.958767 0.970354C0.679568 1.25113 0.478966 1.60028 0.377013 1.9829C-0.12445 4.86827 -0.12445 7.81852 0.377013 10.7039C0.479095 11.0839 0.679991 11.4301 0.959271 11.7073C1.23855 11.9844 1.58625 12.1827 1.96701 12.2819C4.30013 12.5627 6.64923 12.6893 8.99901 12.6609C11.3488 12.6893 13.6979 12.5627 16.031 12.2819C16.4123 12.1832 16.7607 11.9851 17.0405 11.7079C17.3203 11.4307 17.5217 11.0843 17.624 10.7039C18.1255 7.81853 18.1255 4.86827 17.624 1.9829V1.9839ZM7.15901 9.0209V3.6689L11.859 6.3449L7.15901 9.0209Z" fill="#383A4A"/>
</svg>
